<svg width="24" height="24" viewBox="0 0 24 24" fill="none" xmlns="http://www.w3.org/2000/svg">
<g clip-path="url(#clip0_383_107)">
<path d="M5.4482 24V7.80725H0.303533V24H5.4482ZM2.87653 5.59507C4.67057 5.59507 5.78727 4.35166 5.78727 2.7978C5.75384 1.2089 4.67064 0 2.91058 0C1.15079 0 0 1.20893 0 2.7978C0 4.35173 1.11643 5.59507 2.84295 5.59507H2.87637H2.87653ZM8.29576 24H13.4404V14.9572C13.4404 14.4732 13.4738 13.9898 13.6097 13.6438C13.9816 12.6769 14.8281 11.6754 16.2493 11.6754C18.1109 11.6754 18.8557 13.1603 18.8557 15.3371V23.9999H24V14.7151C24 9.74134 21.4619 7.42709 18.0771 7.42709C15.3017 7.42709 14.0832 9.05002 13.4062 10.1554H13.4405V7.80691H8.29587C8.36339 9.32635 8.29587 23.9997 8.29587 23.9997L8.29576 24Z" fill="black"/>
</g>
<defs>
<clipPath id="clip0_383_107">
<rect width="24" height="24" fill="white"/>
</clipPath>
</defs>
</svg>
